<?xml version="1.0" encoding="UTF-8" standalone="no"?>
<!-- Generator: Adobe Illustrator 16.0.0, SVG Export Plug-In . SVG Version: 6.00 Build 0)  -->

<svg
   xmlns:dc="http://purl.org/dc/elements/1.1/"
   xmlns:cc="http://creativecommons.org/ns#"
   xmlns:rdf="http://www.w3.org/1999/02/22-rdf-syntax-ns#"
   xmlns:svg="http://www.w3.org/2000/svg"
   xmlns="http://www.w3.org/2000/svg"
   xmlns:sodipodi="http://sodipodi.sourceforge.net/DTD/sodipodi-0.dtd"
   xmlns:inkscape="http://www.inkscape.org/namespaces/inkscape"
   version="1.1"
   id="Vrstva_1"
   x="0px"
   y="0px"
   width="100"
   height="99.999496"
   viewBox="0 0 100 99.999495"
   enable-background="new 0 0 420 340"
   xml:space="preserve"
   sodipodi:docname="no-pets.svg"
   inkscape:version="0.92.1 r15371"><metadata
     id="metadata665"><rdf:RDF><cc:Work
         rdf:about=""><dc:format>image/svg+xml</dc:format><dc:type
           rdf:resource="http://purl.org/dc/dcmitype/StillImage" /><dc:title></dc:title></cc:Work></rdf:RDF></metadata><defs
     id="defs663" /><sodipodi:namedview
     pagecolor="#ffffff"
     bordercolor="#666666"
     borderopacity="1"
     objecttolerance="10"
     gridtolerance="10"
     guidetolerance="10"
     inkscape:pageopacity="0"
     inkscape:pageshadow="2"
     inkscape:window-width="1600"
     inkscape:window-height="840"
     id="namedview661"
     showgrid="false"
     fit-margin-top="0"
     fit-margin-left="0"
     fit-margin-right="0"
     fit-margin-bottom="0"
     inkscape:zoom="0.69411765"
     inkscape:cx="102.88136"
     inkscape:cy="99.999007"
     inkscape:window-x="0"
     inkscape:window-y="0"
     inkscape:window-maximized="1"
     inkscape:current-layer="Vrstva_1" /><g
     id="g658"
     transform="matrix(0.5,0,0,0.5,-55,-35)"><path
       d="m 276.688,135.3 -19.381,19.381 c -3.859,-2.289 -8.361,-3.607 -13.174,-3.607 H 202.574 L 183.26,131.761 c -0.637,-1.109 -1.406,-2.156 -2.348,-3.098 -1.422,-1.422 -3.07,-2.479 -4.838,-3.207 v -7.355 c 0,-4.709 -3.818,-8.527 -8.527,-8.525 v 14.928 c -3.465,0.551 -6.854,2.188 -9.59,4.924 l -14.637,14.637 c -6.549,6.549 -6.891,16.824 -0.764,22.953 6.127,6.127 16.404,5.785 22.953,-0.764 l 2.867,-2.867 5.805,5.807 c -0.768,2.445 -1.182,5.049 -1.182,7.748 v 1.078 c 0,10.98 6.846,20.357 16.5,24.109 v 19.621 c 0,4.281 3.469,7.75 7.75,7.75 4.279,0 7.75,-3.469 7.75,-7.75 v -17.865 h 38.5 v 17.865 c 0,4.281 3.469,7.75 7.75,7.75 4.279,0 7.75,-3.469 7.75,-7.75 v -22.57 c 6.65,-4.68 11,-12.41 11,-21.16 v -1.078 c 0,-5.051 -1.453,-9.758 -3.955,-13.74 l 10.643,-10.645 c 4.768,-4.766 4.768,-12.493 10e-4,-17.257 z"
       id="path654"
       inkscape:connector-curvature="0"
       style="fill:#89bbfe" /><path
       d="m 210,70 c -55.141,0 -100,44.86 -100,99.999 0,55.141 44.859,100 100,100 55.141,0 100,-44.859 100,-100 C 310,114.861 265.141,70 210,70 Z m -81,100 c 0,-44.663 36.336,-81 81,-81 17.973,0 34.592,5.893 48.043,15.837 L 146.955,220.775 C 135.736,206.875 129,189.212 129,170 Z m 81,81 c -18.619,0 -35.775,-6.33 -49.471,-16.928 L 271.9,117.837 c 11.905,14.104 19.1,32.305 19.1,52.163 0,44.664 -36.338,81 -81,81 z"
       id="path656"
       inkscape:connector-curvature="0"
       style="fill:#496f5d" /></g></svg>