<?xml version="1.0" encoding="UTF-8" standalone="no"?>
<!-- Generator: Adobe Illustrator 16.0.0, SVG Export Plug-In . SVG Version: 6.00 Build 0)  -->

<svg
   xmlns:dc="http://purl.org/dc/elements/1.1/"
   xmlns:cc="http://creativecommons.org/ns#"
   xmlns:rdf="http://www.w3.org/1999/02/22-rdf-syntax-ns#"
   xmlns:svg="http://www.w3.org/2000/svg"
   xmlns="http://www.w3.org/2000/svg"
   xmlns:sodipodi="http://sodipodi.sourceforge.net/DTD/sodipodi-0.dtd"
   xmlns:inkscape="http://www.inkscape.org/namespaces/inkscape"
   version="1.1"
   id="Vrstva_1"
   x="0px"
   y="0px"
   width="100"
   height="100"
   viewBox="0 0 100 100"
   enable-background="new 0 0 420 340"
   xml:space="preserve"
   sodipodi:docname="no-smoking.svg"
   inkscape:version="0.92.1 r15371"><metadata
     id="metadata599"><rdf:RDF><cc:Work
         rdf:about=""><dc:format>image/svg+xml</dc:format><dc:type
           rdf:resource="http://purl.org/dc/dcmitype/StillImage" /><dc:title></dc:title></cc:Work></rdf:RDF></metadata><defs
     id="defs597" /><sodipodi:namedview
     pagecolor="#ffffff"
     bordercolor="#666666"
     borderopacity="1"
     objecttolerance="10"
     gridtolerance="10"
     guidetolerance="10"
     inkscape:pageopacity="0"
     inkscape:pageshadow="2"
     inkscape:window-width="1600"
     inkscape:window-height="840"
     id="namedview595"
     showgrid="false"
     fit-margin-top="0"
     fit-margin-left="0"
     fit-margin-right="0"
     fit-margin-bottom="0"
     inkscape:zoom="0.69411765"
     inkscape:cx="-421.52542"
     inkscape:cy="94.237288"
     inkscape:window-x="0"
     inkscape:window-y="0"
     inkscape:window-maximized="1"
     inkscape:current-layer="Vrstva_1" /><g
     id="g592"
     transform="matrix(0.5,0,0,0.5,-55,-35)"><g
       id="g588"><g
         id="g586"><path
           d="m 262.121,173.361 h -87 v 26.27 h 86.883 c 6.461,0.027 11.725,-5.828 11.756,-13.082 0.034,-7.255 -5.178,-13.159 -11.639,-13.188 z"
           id="path574"
           inkscape:connector-curvature="0"
           style="fill:#89bbfe" /><polygon
           points="171.307,199.63 171.307,173.361 165.442,173.335 165.442,199.605 "
           id="polygon576"
           style="fill:#89bbfe" /><path
           d="m 155.766,173.773 v 25.373 c 0.937,0.277 1.914,0.441 2.929,0.445 l 2.935,0.014 v -26.27 l -2.818,-0.014 c -1.056,-0.003 -2.074,0.163 -3.046,0.452 z"
           id="path578"
           inkscape:connector-curvature="0"
           style="fill:#89bbfe" /><path
           d="m 143.239,186.404 c -0.027,6.117 3.679,11.258 8.712,12.742 v -25.373 c -4.989,1.484 -8.685,6.562 -8.712,12.631 z"
           id="path580"
           inkscape:connector-curvature="0"
           style="fill:#89bbfe" /><path
           d="m 182.556,143.141 c 10.686,0 16.104,-5.418 16.104,-16.104 0,-1.573 0.312,-9.421 6.453,-9.421 v -6 c -7.448,0 -12.453,6.197 -12.453,15.421 0,6.237 -1.69,10.104 -10.104,10.104 -11.478,0 -14.511,9.49 -14.511,14.51 v 12.995 h 6 v -12.978 c 0.017,-1.423 0.507,-8.527 8.511,-8.527 z"
           id="path582"
           inkscape:connector-curvature="0"
           style="fill:#89bbfe" /><path
           d="m 173.421,134.459 c 10.686,0 16.104,-5.418 16.104,-16.103 0,-1.573 0.312,-9.421 6.453,-9.421 v -6 c -7.448,0 -12.453,6.197 -12.453,15.421 0,6.237 -1.69,10.103 -10.104,10.103 -11.478,0 -14.511,9.492 -14.511,14.512 v 12.996 h 6 v -12.979 c 0.017,-1.423 0.507,-8.529 8.511,-8.529 z"
           id="path584"
           inkscape:connector-curvature="0"
           style="fill:#89bbfe" /></g></g><path
       d="m 210,70 c -55.141,0 -100,44.86 -100,100 0,55.141 44.859,100 100,100 55.141,0 100,-44.859 100,-100 C 310,114.86 265.141,70 210,70 Z m -81,100 c 0,-44.663 36.336,-81 81,-81 17.974,0 34.592,5.893 48.043,15.836 L 146.955,220.775 C 135.736,206.875 129,189.212 129,170 Z m 81,81 c -18.618,0 -35.775,-6.33 -49.471,-16.928 L 271.9,117.837 c 11.905,14.104 19.1,32.306 19.1,52.163 0,44.664 -36.337,81 -81,81 z"
       id="path590"
       inkscape:connector-curvature="0"
       style="fill:#496f5d" /></g></svg>